<svg xmlns="http://www.w3.org/2000/svg" version="1.1" xmlns:xlink="http://www.w3.org/1999/xlink" xmlns:svgjs="http://svgjs.dev/svgjs" width="1000" height="803" viewBox="0 0 1000 803"><g transform="matrix(1,0,0,1,0,0)"><svg viewBox="0 0 448 360" data-background-color="#ffffff" preserveAspectRatio="xMidYMid meet" height="803" width="1000" xmlns="http://www.w3.org/2000/svg" xmlns:xlink="http://www.w3.org/1999/xlink"><g id="tight-bounds" transform="matrix(1,0,0,1,0,0)"><svg viewBox="0 0 448 360" height="360" width="448"><g><svg></svg></g><g><svg viewBox="0 0 448 360" height="360" width="448"><g><path xmlns="http://www.w3.org/2000/svg" d="M193.855 44.683c1.378 0 2.494 1.116 2.495 2.494 0 1.378-1.116 2.494-2.495 2.495h-23.846l-17.167 17.167c-0.973 0.973-2.551 0.973-3.53 0-0.973-0.973-0.973-2.551 0-3.529l13.644-13.645h-40.378c-11.518 0-19.151 2.688-23.815 8.113-4.739 5.519-6.66 14.056-6.66 25.63 0 0.069 0 0.137-0.006 0.206l0.212 36.692 14.692-14.692c0.973-0.973 2.551-0.973 3.53 0 0.973 0.973 0.973 2.551 0 3.53l-18.178 18.178c0.206 35.832 0.193 71.358-0.013 107.19 25.486 25.2 50.617 50.312 75.811 75.791h25.38c1.378 0 2.494 1.116 2.495 2.495 0 1.378-1.116 2.494-2.495 2.494h-20.448l25.942 26.241 0.006-0.006c8.188 8.188 15.577 12.859 22.824 13.413 7.146 0.543 14.442-2.956 22.586-11.093l28.555-28.555h-20.722c-1.378 0-2.494-1.116-2.495-2.494 0-1.378 1.116-2.494 2.495-2.495h25.711l16.625-16.625c0.973-0.973 2.551-0.973 3.529 0 0.973 0.973 0.973 2.551 0 3.53l-13.101 13.102h40.377c11.518 0 19.151-2.688 23.815-8.113 4.739-5.519 6.66-14.056 6.66-25.63h0.013l-0.212-36.898-16.014 16.014c-0.973 0.973-2.551 0.973-3.53 0-0.973-0.973-0.973-2.551 0-3.53l19.5-19.5c-0.206-35.832-0.193-71.358 0.013-107.19-25.486-25.2-50.617-50.312-75.811-75.791h-26.147c-1.378 0-2.494-1.116-2.495-2.495 0-1.378 1.116-2.494 2.495-2.494h21.215l-25.824-26.123c-0.044-0.037-0.081-0.075-0.124-0.112-8.188-8.188-15.577-12.859-22.824-13.413-7.146-0.543-14.442 2.956-22.586 11.093l-28.555 28.555h18.858zM122.578 44.683h45.367l32.078-32.078c9.248-9.248 17.81-13.195 26.484-12.534 8.568 0.649 16.956 5.824 25.985 14.854 0.05 0.05 0.094 0.094 0.137 0.143l29.278 29.615h43.508c13.071 0 21.919 3.268 27.594 9.871 5.6 6.517 7.864 16.101 7.864 28.867 0 0.081-0.006 0.156-0.012 0.23l-0.225 39.742 28.43 28.112 0.006-0.006c9.03 9.03 14.206 17.411 14.854 25.985 0.661 8.674-3.293 17.236-12.534 26.484l-30.768 30.768 0.237 41.843h0.012c0 12.765-2.27 22.35-7.864 28.867-5.675 6.604-14.524 9.872-27.594 9.871h-45.366l-32.078 32.078c-9.248 9.248-17.81 13.195-26.484 12.534-8.568-0.649-16.956-5.824-25.985-14.854l0.006-0.006-29.421-29.758h-43.509c-13.071 0-21.919-3.268-27.594-9.872-5.6-6.517-7.864-16.101-7.863-28.866h0.012l0.231-39.972-28.293-27.969c-0.05-0.044-0.1-0.087-0.143-0.137-9.03-9.03-14.206-17.411-14.854-25.985-0.661-8.674 3.293-17.236 12.534-26.484l30.768-30.768-0.237-41.607c-0.006-0.075-0.012-0.156-0.012-0.23 0-12.765 2.27-22.35 7.864-28.867 5.675-6.604 14.524-9.872 27.594-9.871zM87.682 179.997l-0.274-47.724-27.276 27.276c-8.138 8.138-11.636 15.44-11.094 22.587 0.549 7.246 5.226 14.642 13.413 22.823 0.037 0.037 0.081 0.081 0.113 0.125l24.837 24.551 0.281-49.644zM92.303 241.483l-0.2 35.09h0.013c0 11.58 1.921 20.117 6.66 25.63 4.664 5.432 12.297 8.113 23.815 8.113h38.576l-33.55-33.936-35.308-34.903zM325.415 49.672h-38.575l33.549 33.936 35.308 34.902 0.2-34.884c-0.006-0.069-0.006-0.137-0.007-0.205 0-11.58-1.921-20.117-6.66-25.63-4.664-5.432-12.297-8.113-23.815-8.113zM360.599 130.352l-0.281 49.645 0.274 47.724 27.276-27.276c8.138-8.138 11.636-15.44 11.094-22.587-0.549-7.252-5.226-14.642-13.413-22.824l0.006-0.006-24.956-24.669z" fill="#c53683" fill-rule="nonzero" stroke="none" stroke-width="1" stroke-linecap="butt" stroke-linejoin="miter" stroke-miterlimit="10" stroke-dasharray="" stroke-dashoffset="0" font-family="none" font-weight="none" font-size="none" text-anchor="none" style="mix-blend-mode: normal" data-fill-palette-color="tertiary"></path></g><g transform="matrix(1,0,0,1,112,146.38750464856824)"><svg viewBox="0 0 224 67.22499070286351" height="67.22499070286351" width="224"><g><svg viewBox="0 0 224 67.22499070286351" height="67.22499070286351" width="224"><g><svg viewBox="0 0 224 67.22499070286351" height="67.22499070286351" width="224"><g id="textblocktransform"><svg viewBox="0 0 224 67.22499070286351" height="67.22499070286351" width="224" id="textblock"><g><svg viewBox="0 0 224 67.22499070286351" height="67.22499070286351" width="224"><g transform="matrix(1,0,0,1,0,0)"><svg width="224" viewBox="1.5 -36 134.33999633789062 40.349998474121094" height="67.22499070286351" data-palette-color="#c53683"><path d="M24.75 4.35L24.75 4.35Q23.65 4.35 22.2 3.05 20.75 1.75 19.13-0.4 17.5-2.55 15.93-5.08 14.35-7.6 13.03-10.1 11.7-12.6 10.8-14.55L10.8-14.55 5.95 1.15Q5.6 2.3 4.85 2.78 4.1 3.25 3.23 3.35 2.35 3.45 1.5 3.45L1.5 3.45Q2.15 2.05 2.83 0.25 3.5-1.55 4.42-4.1 5.35-6.65 6.6-10.3 7.85-13.95 9.58-19.03 11.3-24.1 13.65-30.95L13.65-30.95Q13.8-31.35 14.05-32.08 14.3-32.8 14.3-33.4L14.3-33.4Q14.3-33.95 14.05-34.27 13.8-34.6 13.1-34.6L13.1-34.6Q11.9-34.6 10.78-33.63 9.65-32.65 8.78-31.15 7.9-29.65 7.4-28.05 6.9-26.45 6.9-25.2L6.9-25.2Q6.9-24.25 7.15-23.5L7.15-23.5Q5.5-23.5 4.83-24.33 4.15-25.15 4.15-26.35L4.15-26.35Q4.15-28.05 5.15-29.75 6.15-31.45 7.73-32.88 9.3-34.3 11.03-35.15 12.75-36 14.15-36L14.15-36Q15.5-36 15.98-35.25 16.45-34.5 16.45-33.6L16.45-33.6Q16.45-33.05 16.32-32.5 16.2-31.95 16.05-31.45L16.05-31.45 11.85-17.85Q12.55-18.85 13.68-19.7 14.8-20.55 16.15-21.65L16.15-21.65Q18.4-23.45 20.98-25.85 23.55-28.25 25.9-30.9 28.25-33.55 29.8-36L29.8-36Q30.05-35.7 30.15-34.95 30.25-34.2 30.25-33.8L30.25-33.8Q30.25-32.25 28.98-30.4 27.7-28.55 25.65-26.58 23.6-24.6 21.15-22.68 18.7-20.75 16.32-19.05 13.95-17.35 12.05-16.1L12.05-16.1Q13.55-13.55 14.98-11.25 16.4-8.95 18.07-6.75 19.75-4.55 22-2.25 24.25 0.05 27.45 2.7L27.45 2.7Q27.1 3.35 26.35 3.85 25.6 4.35 24.75 4.35ZM31.9 2.35L31.9 2.35Q30.35 2.35 29.27 1.33 28.2 0.3 28.2-1.8L28.2-1.8Q28.2-3.6 29-5.68 29.8-7.75 31.2-9.78 32.6-11.8 34.37-13.48 36.15-15.15 38.12-16.15 40.1-17.15 42.05-17.15L42.05-17.15Q44-17.15 45.3-16.13 46.6-15.1 46.6-13.4L46.6-13.4Q46.6-12.15 45.92-11.7 45.25-11.25 44.15-11.25L44.15-11.25Q44.25-11.65 44.32-12.13 44.4-12.6 44.4-13L44.4-13Q44.4-14.15 43.85-14.98 43.3-15.8 41.95-15.8L41.95-15.8Q40.55-15.8 39.1-14.83 37.65-13.85 36.3-12.23 34.95-10.6 33.9-8.7 32.85-6.8 32.25-4.95 31.65-3.1 31.65-1.65L31.65-1.65Q31.65 0.3 33 0.3L33 0.3Q34.15 0.3 35.5-0.78 36.85-1.85 38.27-3.53 39.7-5.2 41-7 42.3-8.8 43.3-10.3L43.3-10.3Q43.5-10.6 43.55-10.6L43.55-10.6Q43.85-10.55 44.32-10.4 44.8-10.25 45.15-10 45.5-9.75 45.5-9.35L45.5-9.35Q45.5-8.9 45.05-8.13 44.6-7.35 44.05-6.35 43.5-5.35 43.05-4.33 42.6-3.3 42.6-2.4L42.6-2.4Q42.6-1.65 43-0.93 43.4-0.2 44.3-0.2L44.3-0.2Q45.65-0.2 47.85-2.18 50.05-4.15 52.3-8.1L52.3-8.1 52.8-7.6Q51.75-4.9 50.1-2.85 48.45-0.8 46.57 0.35 44.7 1.5 42.9 1.5L42.9 1.5Q41.05 1.5 40.17 0.4 39.3-0.7 39.3-2L39.3-2Q39.3-2.3 39.35-2.68 39.4-3.05 39.45-3.45L39.45-3.45Q37.3-0.55 35.52 0.9 33.75 2.35 31.9 2.35ZM59.95 1.3L59.95 1.3Q58.25 1.3 57.27 0.4 56.3-0.5 56.3-1.95L56.3-1.95Q56.3-3.45 57-5.1 57.7-6.75 58.37-8.38 59.05-10 59.05-11.3L59.05-11.3Q59.05-12.9 58.12-13.68 57.2-14.45 56.25-15.1L56.25-15.1Q55.09-12.15 53.84-9.5 52.59-6.85 51.8-5.5L51.8-5.5 51.34-6.35Q52.05-7.65 53.17-10.15 54.3-12.65 55.4-15.85L55.4-15.85Q54.9-16.35 54.9-17.05L54.9-17.05Q54.9-18.55 55.75-19.5 56.59-20.45 57-20.45L57-20.45Q57.55-20.45 57.62-19.98 57.7-19.5 57.7-19.25L57.7-19.25Q57.7-19 57.42-18.28 57.15-17.55 57.15-17.4L57.15-17.4Q57.15-16.7 57.92-16.13 58.7-15.55 59.7-14.83 60.7-14.1 61.47-13.08 62.25-12.05 62.25-10.45L62.25-10.45Q62.25-8.95 61.62-7.4 61-5.85 60.37-4.45 59.75-3.05 59.75-2L59.75-2Q59.75-1.1 60.2-0.8 60.65-0.5 61.25-0.5L61.25-0.5Q62.45-0.5 63.72-1.25 65-2 66.2-3.15 67.4-4.3 68.34-5.58 69.3-6.85 69.75-7.95L69.75-7.95 70.4-7.45Q69.45-5.35 67.8-3.33 66.15-1.3 64.12 0 62.09 1.3 59.95 1.3ZM74.09 2.2L74.09 2.2Q71.04 2.2 69.52 0.53 67.99-1.15 67.99-3.6L67.99-3.6Q67.99-5.85 69.12-8.35 70.24-10.85 72.12-13.05 73.99-15.25 76.24-16.63 78.49-18 80.69-18L80.69-18Q81.84-18 82.82-17.4 83.79-16.8 83.79-14.95L83.79-14.95Q83.79-13.05 82.67-11.38 81.54-9.7 79.72-8.4 77.89-7.1 75.72-6.28 73.54-5.45 71.39-5.25L71.39-5.25Q71.29-4.75 71.24-4.3 71.19-3.85 71.19-3.45L71.19-3.45Q71.19-2.7 71.37-1.95 71.54-1.2 71.99-0.58 72.44 0.05 73.22 0.4 73.99 0.75 75.14 0.75L75.14 0.75Q77.29 0.75 79.39-0.48 81.49-1.7 83.29-3.7 85.09-5.7 86.34-8.1L86.34-8.1 86.94-7.65Q85.59-4.65 83.52-2.45 81.44-0.25 79.02 0.98 76.59 2.2 74.09 2.2ZM71.64-6.2L71.64-6.2Q72.99-6.65 74.69-7.53 76.39-8.4 77.97-9.6 79.54-10.8 80.57-12.25 81.59-13.7 81.59-15.3L81.59-15.3Q81.59-15.85 81.39-16.15 81.19-16.45 80.54-16.45L80.54-16.45Q79.34-16.45 77.99-15.53 76.64-14.6 75.39-13.1 74.14-11.6 73.14-9.8 72.14-8 71.64-6.2ZM90.74 2.2L90.74 2.2Q87.69 2.2 86.17 0.53 84.64-1.15 84.64-3.6L84.64-3.6Q84.64-5.85 85.77-8.35 86.89-10.85 88.77-13.05 90.64-15.25 92.89-16.63 95.14-18 97.34-18L97.34-18Q98.49-18 99.47-17.4 100.44-16.8 100.44-14.95L100.44-14.95Q100.44-13.05 99.32-11.38 98.19-9.7 96.37-8.4 94.54-7.1 92.37-6.28 90.19-5.45 88.04-5.25L88.04-5.25Q87.94-4.75 87.89-4.3 87.84-3.85 87.84-3.45L87.84-3.45Q87.84-2.7 88.02-1.95 88.19-1.2 88.64-0.58 89.09 0.05 89.87 0.4 90.64 0.75 91.79 0.75L91.79 0.75Q93.94 0.75 96.04-0.48 98.14-1.7 99.94-3.7 101.74-5.7 102.99-8.1L102.99-8.1 103.59-7.65Q102.24-4.65 100.17-2.45 98.09-0.25 95.67 0.98 93.24 2.2 90.74 2.2ZM88.29-6.2L88.29-6.2Q89.64-6.65 91.34-7.53 93.04-8.4 94.62-9.6 96.19-10.8 97.22-12.25 98.24-13.7 98.24-15.3L98.24-15.3Q98.24-15.85 98.04-16.15 97.84-16.45 97.19-16.45L97.19-16.45Q95.99-16.45 94.64-15.53 93.29-14.6 92.04-13.1 90.79-11.6 89.79-9.8 88.79-8 88.29-6.2ZM127.19 1.55L127.19 1.55Q125.44 1.55 124.64 0.48 123.84-0.6 123.84-2.1L123.84-2.1Q123.84-3.35 124.21-4.6 124.59-5.85 124.96-7.05 125.34-8.25 125.34-9.2L125.34-9.2Q125.34-10.2 124.89-10.6 124.44-11 123.89-11L123.89-11Q122.64-11 121.16-9.05 119.69-7.1 117.34-3.55L117.34-3.55Q116.54-2.35 115.99-1.13 115.44 0.1 114.94 1.1L114.94 1.1Q114.54 1.1 113.94 1 113.34 0.9 112.86 0.68 112.39 0.45 112.39 0.1L112.39 0.1Q112.39-0.25 112.86-1.58 113.34-2.9 113.96-4.67 114.59-6.45 115.06-8.28 115.54-10.1 115.54-11.4L115.54-11.4Q115.54-12.25 115.26-12.78 114.99-13.3 114.29-13.3L114.29-13.3Q113.19-13.3 111.64-11.98 110.09-10.65 108.44-8.5 106.79-6.35 105.31-3.78 103.84-1.2 102.94 1.35L102.94 1.35Q102.49 1.35 101.84 1.2 101.19 1.05 100.71 0.8 100.24 0.55 100.24 0.3L100.24 0.3Q100.24 0 100.76-1.48 101.29-2.95 101.96-5.03 102.64-7.1 103.16-9.25 103.69-11.4 103.69-13.05L103.69-13.05Q103.99-13.4 104.64-13.75 105.29-14.1 105.99-14.1L105.99-14.1Q106.69-14.1 107.01-13.75 107.34-13.4 107.34-12.8L107.34-12.8Q107.34-12.15 106.96-10.58 106.59-9 106.04-7.1L106.04-7.1Q107.04-8.7 108.31-10.38 109.59-12.05 110.99-13.45 112.39-14.85 113.81-15.73 115.24-16.6 116.59-16.6L116.59-16.6Q118.14-16.6 118.71-15.48 119.29-14.35 119.29-12.8L119.29-12.8Q119.29-11.55 119.01-10.18 118.74-8.8 118.39-7.63 118.04-6.45 117.74-5.75L117.74-5.75Q118.79-7.65 120.06-9.43 121.34-11.2 122.84-12.33 124.34-13.45 126.04-13.45L126.04-13.45Q127.64-13.45 128.26-12.5 128.89-11.55 128.89-10.25L128.89-10.25Q128.89-8.95 128.44-7.4 127.99-5.85 127.51-4.4 127.04-2.95 127.04-1.9L127.04-1.9Q127.04-1.25 127.36-0.73 127.69-0.2 128.54-0.2L128.54-0.2Q129.94-0.2 131.16-1.48 132.39-2.75 133.44-4.58 134.49-6.4 135.24-8.1L135.24-8.1 135.84-7.4Q135.04-5.3 133.79-3.23 132.54-1.15 130.86 0.2 129.19 1.55 127.19 1.55Z" opacity="1" transform="matrix(1,0,0,1,0,0)" fill="#c53683" class="wordmark-text-0" data-fill-palette-color="primary" id="text-0"></path></svg></g></svg></g></svg></g></svg></g><g></g></svg></g></svg></g></svg></g><defs></defs></svg><rect width="448" height="360" fill="none" stroke="none" visibility="hidden"></rect></g></svg></g></svg>